<svg width="132" height="132" viewBox="0 0 132 132" fill="none" xmlns="http://www.w3.org/2000/svg">
<rect width="132" height="132" rx="30" fill="url(#paint0_linear_212414_2256)"/>
<path fill-rule="evenodd" clip-rule="evenodd" d="M51.1979 33.7188C51.7674 34.2883 51.7674 35.2116 51.1979 35.7812L35.1562 51.8228C34.5867 52.3923 33.6633 52.3923 33.0938 51.8228L25.8021 44.5312C25.2326 43.9616 25.2326 43.0383 25.8021 42.4688C26.3717 41.8992 27.295 41.8992 27.8645 42.4688L34.125 48.7292L49.1355 33.7188C49.705 33.1492 50.6283 33.1492 51.1979 33.7188Z" stroke="white" stroke-width="5" stroke-linecap="round" stroke-linejoin="round"/>
<path d="M77.7917 42.0416C76.7101 42.0416 75.8334 42.6945 75.8334 43.5C75.8334 44.3054 76.7101 44.9583 77.7917 44.9583H105.208C106.29 44.9583 107.167 44.3054 107.167 43.5C107.167 42.6945 106.29 42.0416 105.208 42.0416H77.7917Z" stroke="white" stroke-width="5"/>
<path fill-rule="evenodd" clip-rule="evenodd" d="M51.1979 79.7188C51.7674 80.2883 51.7674 81.2116 51.1979 81.7812L35.1562 97.8228C34.5867 98.3923 33.6633 98.3923 33.0938 97.8228L25.8021 90.5312C25.2326 89.9616 25.2326 89.0383 25.8021 88.4688C26.3717 87.8992 27.295 87.8992 27.8645 88.4688L34.125 94.7292L49.1355 79.7188C49.705 79.1492 50.6283 79.1492 51.1979 79.7188Z" stroke="white" stroke-width="5" stroke-linecap="round" stroke-linejoin="round"/>
<path d="M77.7917 88.0416C76.7101 88.0416 75.8334 88.6945 75.8334 89.5C75.8334 90.3054 76.7101 90.9583 77.7917 90.9583H105.208C106.29 90.9583 107.167 90.3054 107.167 89.5C107.167 88.6945 106.29 88.0416 105.208 88.0416H77.7917Z" stroke="white" stroke-width="5"/>
<defs>
<linearGradient id="paint0_linear_212414_2256" x1="132" y1="-6.49639e-06" x2="-25.5256" y2="47.695" gradientUnits="userSpaceOnUse">
<stop stop-color="#4579FB"/>
<stop offset="1" stop-color="#4C256D"/>
</linearGradient>
</defs>
</svg>
